<svg id="Layer_1" data-name="Layer 1" xmlns="http://www.w3.org/2000/svg" viewBox="0 0 22 22">
  <defs>
    <style>
      .cls-1 {
        fill: #010101;
      }
    </style>
  </defs>
  <path class="cls-1" d="M20.79,0H1.21A1.21,1.21,0,0,0,0,1.21V20.79A1.21,1.21,0,0,0,1.21,22H11.748V13.475H8.888v-3.3h2.86V7.7a4.004,4.004,0,0,1,4.268-4.4,22.28476,22.28476,0,0,1,2.563.132v2.97H16.83c-1.386,0-1.65.66-1.65,1.617v2.123h3.3l-.429,3.3H15.18V22h5.61A1.21,1.21,0,0,0,22,20.79h0V1.21A1.21,1.21,0,0,0,20.79,0Z"/>
</svg>
