<svg id="Layer_1" data-name="Layer 1" xmlns="http://www.w3.org/2000/svg" viewBox="0 0 18.81019 23.74474">
  <g>
    <path d="M11.91921,14.33781c1.97144.00053,3.94419-.0449,5.914.011,3.067.08707,4.38079,2.189,3.061,4.98922a6.82719,6.82719,0,0,1-1.79667,2.2774c-3.64394,2.99748-11.27047,3.08117-14.59616-.18175a7.24235,7.24235,0,0,1-1.89369-5.11061c.16889-2.247,2.50153-1.99894,4.2843-1.988C8.5677,14.34537,10.24348,14.33729,11.91921,14.33781Zm8.13071,2.426a8.18,8.18,0,0,0-1.59183-.591c-3.75815-.034-7.51854-.114-11.27353-.00937a11.30353,11.30353,0,0,0-3.02914.97467c.63913,1.13771,1.01365,2.62026,1.967,3.34842,2.85291,2.179,8.72077,2.15134,11.50889-.04918C18.67609,19.61278,19.18945,18.118,20.04992,16.76383Z" transform="translate(-2.5949 -0.12763)"/>
    <path d="M11.7644,11.94269A5.99224,5.99224,0,0,1,5.91358,5.819,5.99079,5.99079,0,0,1,11.90064.128a5.99129,5.99129,0,0,1,5.85317,6.12142A6.001,6.001,0,0,1,11.7644,11.94269Zm4.20336-5.6771A4.22416,4.22416,0,0,0,12.06425,1.9102,4.22022,4.22022,0,0,0,7.69971,5.80275a4.22353,4.22353,0,0,0,3.90063,4.35781A4.22647,4.22647,0,0,0,15.96776,6.26559Z" transform="translate(-2.5949 -0.12763)"/>
  </g>
</svg>
